<?xml version="1.0" encoding="utf-8"?>
<!-- Generator: Adobe Illustrator 24.1.0, SVG Export Plug-In . SVG Version: 6.00 Build 0)  -->
<svg version="1.1" id="Layer_1" xmlns="http://www.w3.org/2000/svg" xmlns:xlink="http://www.w3.org/1999/xlink" x="0px" y="0px"
	 viewBox="0 0 256 256" style="enable-background:new 0 0 256 256;" xml:space="preserve">
<style type="text/css">
	.st0{fill:#563E7C;}
	.st1{fill-rule:evenodd;clip-rule:evenodd;fill:#FFFFFF;}
	.st2{fill:#FFFFFF;}
</style>
<g>
	<path class="st0" d="M254,1v252.5H1V1H254 M258-3h-4H1h-4v4v252.5v4h4h253h4v-4V1V-3L258-3z"/>
</g>
<g>
	<path class="st0" d="M23.4,49.7V12.4h14.2c6.4,0,10.7,3.7,10.7,9.3c0,3.9-2.8,7.5-6.4,8.2v0.2c5.1,0.6,8.3,4.2,8.3,9.2
		c0,6.6-4.7,10.5-12.7,10.5H23.4z M28.1,28.5h7c5.5,0,8.5-2.2,8.5-6.2c0-3.7-2.5-5.7-7.1-5.7h-8.4V28.5z M36.8,45.6
		c5.6,0,8.6-2.3,8.6-6.6s-3.1-6.5-9-6.5h-8.3v13.1H36.8z"/>
	<path class="st0" d="M53.4,36.3c0-8.6,5-13.9,12.5-13.9c7.4,0,12.4,5.3,12.4,13.9c0,8.6-5,13.9-12.4,13.9
		C58.5,50.2,53.4,44.8,53.4,36.3z M73.8,36.3c0-6.3-3.1-10-7.9-10s-7.9,3.6-7.9,10s3.1,10,7.9,10S73.8,42.6,73.8,36.3z"/>
	<path class="st0" d="M81.6,36.3c0-8.6,5-13.9,12.5-13.9c7.4,0,12.4,5.3,12.4,13.9c0,8.6-5,13.9-12.4,13.9
		C86.6,50.2,81.6,44.8,81.6,36.3z M101.9,36.3c0-6.3-3.1-10-7.9-10s-7.9,3.6-7.9,10s3.1,10,7.9,10S101.9,42.6,101.9,36.3z"/>
	<path class="st0" d="M117,16.3v6.5h5.2v3.7H117v16c0,2.5,1,3.6,3.3,3.6c0.5,0,1.6-0.1,1.9-0.1v3.8c-0.5,0.1-1.8,0.2-2.8,0.2
		c-4.9,0-6.9-2-6.9-7.2V26.5h-4v-3.7h4v-6.5H117z"/>
	<path class="st0" d="M136.4,22.3c5.9,0,9.8,3.5,10,8.2h-4.3c-0.3-2.8-2.4-4.6-5.7-4.6c-3.3,0-5.5,1.6-5.5,4c0,1.9,1.4,3.1,4.4,3.9
		l4.3,1c5.4,1.3,7.4,3.4,7.4,7.3c0,4.7-4.4,8-10.4,8c-6.3,0-10.2-3.2-10.8-8.2h4.5c0.5,3.1,2.6,4.6,6.3,4.6c3.6,0,5.9-1.6,5.9-4
		c0-1.9-1.1-3.1-4.1-3.8l-4.3-1c-5.1-1.2-7.5-3.6-7.5-7.5C126.5,25.6,130.6,22.3,136.4,22.3z"/>
	<path class="st0" d="M157.6,16.3v6.5h5.2v3.7h-5.2v16c0,2.5,1,3.6,3.3,3.6c0.5,0,1.6-0.1,1.9-0.1v3.8c-0.5,0.1-1.8,0.2-2.8,0.2
		c-4.9,0-6.9-2-6.9-7.2V26.5h-4v-3.7h4v-6.5H157.6z"/>
	<path class="st0" d="M167.6,22.8h4.2v4.4h0.1c0.9-3,3.4-4.9,6.5-4.9c0.8,0,1.4,0.1,1.8,0.2v4.4c-0.4-0.1-1.3-0.3-2.4-0.3
		c-3.5,0-5.8,2.5-5.8,6.3v16.8h-4.5V22.8z"/>
	<path class="st0" d="M182.3,42.1c0-4.6,3.5-7.5,9.8-7.9l7.7-0.4v-2.3c0-3.3-2.2-5.3-5.9-5.3c-3.5,0-5.6,1.6-6.2,4.3h-4.3
		c0.3-4.7,4.3-8.2,10.7-8.2c6.3,0,10.3,3.4,10.3,8.8v18.6H200v-4.6h-0.1c-1.6,3.1-5,5.1-8.6,5.1C185.9,50.2,182.3,47,182.3,42.1z
		 M199.8,39.5v-2.2l-7.2,0.4c-3.6,0.2-5.7,1.8-5.7,4.4c0,2.6,2.1,4.2,5.4,4.2C196.5,46.4,199.8,43.4,199.8,39.5z"/>
	<path class="st0" d="M234.6,36.3c0,8.4-4.6,13.9-11.4,13.9c-3.9,0-7-1.9-8.6-4.8h-0.1v13.4H210V22.8h4.3v4.6h0.1c1.7-3,4.8-5,8.7-5
		C229.9,22.3,234.6,27.8,234.6,36.3z M230,36.3c0-6.1-3-10-7.8-10c-4.6,0-7.7,4-7.7,10c0,6,3.1,10,7.7,10
		C227,46.2,230,42.4,230,36.3z"/>
</g>
<g>
	<rect y="67.1" class="st0" width="256" height="121.9"/>
	<g>
		<path class="st1" d="M131.7,154.5h-22.8V98.9h22.3c10.4,0,16.7,5.3,16.7,13.9c0,5.8-4.3,11-9.7,11.9v0.7
			c7.5,0.8,12.5,6.1,12.5,13.3C150.6,148.5,143.5,154.5,131.7,154.5z M117.5,106.3v16.2h10.2c7.6,0,11.6-2.8,11.6-8.1
			c0-5.1-3.7-8.1-10.1-8.1H117.5z M129.9,147.1h-12.5v-17.9h12c8.1,0,12.4,3,12.4,8.8C141.8,144,137.7,147.1,129.9,147.1z"/>
		<g>
			<path class="st2" d="M155,180.8H101c-14.2,0-25.8-11.6-25.8-25.8V101c0-14.2,11.6-25.8,25.8-25.8H155c14.2,0,25.8,11.6,25.8,25.8
				V155C180.8,169.2,169.2,180.8,155,180.8z M101,81C90,81,81,90,81,101V155C81,166,90,175,101,175H155c11,0,19.9-8.9,19.9-19.9V101
				C175,90,166,81,155,81H101z"/>
		</g>
	</g>
</g>
<g>
	<path class="st0" d="M52.6,237.7v-37.3h14.2c6.4,0,10.7,3.7,10.7,9.3c0,3.9-2.8,7.5-6.4,8.2v0.2c5.1,0.6,8.3,4.2,8.3,9.2
		c0,6.6-4.7,10.5-12.7,10.5H52.6z M57.3,216.5h7c5.5,0,8.5-2.2,8.5-6.2c0-3.7-2.5-5.7-7.1-5.7h-8.4V216.5z M66,233.6
		c5.6,0,8.6-2.3,8.6-6.6c0-4.3-3.1-6.5-9-6.5h-8.3v13.1H66z"/>
	<path class="st0" d="M82.9,230.1c0-4.6,3.5-7.5,9.8-7.9l7.7-0.4v-2.3c0-3.3-2.2-5.3-5.9-5.3c-3.5,0-5.6,1.6-6.2,4.3h-4.3
		c0.3-4.7,4.3-8.2,10.7-8.2c6.3,0,10.3,3.4,10.3,8.8v18.6h-4.3v-4.6h-0.1c-1.6,3.1-5,5.1-8.6,5.1C86.5,238.2,82.9,235,82.9,230.1z
		 M100.4,227.5v-2.2l-7.2,0.4c-3.6,0.2-5.7,1.8-5.7,4.4c0,2.6,2.1,4.2,5.4,4.2C97.1,234.4,100.4,231.4,100.4,227.5z"/>
	<path class="st0" d="M110.6,210.8h4.2v4.3h0.1c1.5-2.9,4.4-4.8,8.5-4.8c5.9,0,9.3,3.8,9.3,9.9v17.5h-4.5v-16.7c0-4.3-2-6.7-6.2-6.7
		c-4.2,0-7,3-7,7.6v15.8h-4.5V210.8z"/>
	<path class="st0" d="M138.5,210.8h4.2v4.3h0.1c1.5-2.9,4.4-4.8,8.5-4.8c5.9,0,9.3,3.8,9.3,9.9v17.5h-4.5v-16.7c0-4.3-2-6.7-6.2-6.7
		c-4.2,0-7,3-7,7.6v15.8h-4.5V210.8z"/>
	<path class="st0" d="M188.7,230c-0.8,4.7-5.3,8.2-11.2,8.2c-7.7,0-12.4-5.4-12.4-13.8c0-8.4,4.8-14,12.2-14
		c7.3,0,11.7,5.3,11.7,13.4v1.7h-19.3v0.3c0,5.2,3,8.5,7.9,8.5c3.4,0,5.9-1.7,6.7-4.3H188.7z M169.8,222h14.6
		c-0.1-4.5-2.9-7.7-7.2-7.7C173,214.3,170.1,217.5,169.8,222z"/>
	<path class="st0" d="M193.6,210.8h4.2v4.4h0.1c0.9-3,3.4-4.9,6.5-4.9c0.8,0,1.4,0.1,1.8,0.2v4.4c-0.4-0.1-1.3-0.3-2.4-0.3
		c-3.5,0-5.8,2.5-5.8,6.3v16.8h-4.5V210.8z"/>
</g>
</svg>
